<svg width="95" height="35" viewBox="0 0 95 35" fill="none" xmlns="http://www.w3.org/2000/svg">
<path fill-rule="evenodd" clip-rule="evenodd" d="M18.1725 0.344932C17.6993 0.915202 17.8147 1.2474 21.2269 9.12282C22.9079 13.0027 24.9216 17.6603 25.7018 19.4728C26.4822 21.2854 27.3295 23.1837 27.585 23.6912L28.0495 24.614H38.5947C48.3573 24.614 49.2373 24.5765 50.4509 24.1086C54.4075 22.5826 56.5583 17.7873 55.0626 13.8258C54.3505 11.9394 52.7945 10.1819 50.9961 9.23355C49.6911 8.54517 49.5556 8.5304 43.3838 8.40016C37.5527 8.2773 37.0734 8.2309 36.7267 7.75607C36.2371 7.08562 36.2556 6.73153 36.8145 6.05053L37.2759 5.48843L50.819 5.55989L64.3618 5.63133L64.8703 6.94957C66.8066 11.9676 71.8755 23.9356 72.268 24.4162C72.5486 24.7595 76.0113 24.889 76.8015 24.5858C77.0308 24.4977 77.2186 24.1592 77.2186 23.8333C77.2186 23.3827 70.418 7.0458 67.8641 1.36103C67.5822 0.733809 67.2635 0.477283 66.6175 0.358642C66.1403 0.270847 59.1653 0.234989 51.1174 0.278754C36.8643 0.356267 36.4536 0.372877 35.2801 0.915727C33.5556 1.71353 32.2887 3.12984 31.7404 4.87335C30.6937 8.20164 32.1303 11.4261 35.2985 12.8603C36.375 13.3475 37.0225 13.3979 42.2852 13.4042C48.8237 13.4118 49.3715 13.5487 50.2521 15.3953C50.6531 16.2363 50.6595 16.4406 50.3146 17.4167C50.1037 18.0138 49.5993 18.7478 49.1941 19.0478C48.4794 19.577 48.2041 19.591 39.9664 19.5129C35.2964 19.4689 31.3913 19.3513 31.2879 19.2519C31.0936 19.0647 29.7704 16.0594 26.1033 7.47687C24.9261 4.72175 23.6957 1.93367 23.369 1.28114L22.7753 0.0947285L20.6408 0.0187994C18.9814 -0.0402578 18.4319 0.0322453 18.1725 0.344932ZM10.1864 0.408205C9.07376 0.699008 9.38434 1.85273 12.6926 9.71788C16.4034 18.5401 18.815 24.1281 19.0402 24.426C19.4264 24.9369 23.6872 24.7524 24.0281 24.2101C24.2158 23.9114 23.1383 21.1264 19.8968 13.5323C14.3752 0.596187 14.4514 0.762286 13.9062 0.470427C13.4471 0.224708 11.0422 0.184631 10.1864 0.408205ZM72.0774 0.461726C71.277 0.583531 71.0041 0.753321 70.9448 1.16751C70.9021 1.46728 71.4549 3.06894 72.1736 4.72676C72.8924 6.38431 75.0403 11.4147 76.9467 15.9054C78.8534 20.3959 80.5397 24.2222 80.6937 24.4081C80.8743 24.6256 81.6518 24.7458 82.8783 24.7458C85.147 24.7458 85.1649 24.7302 86.5174 21.582C92.31 8.1004 95.1202 1.25583 94.9961 0.932073C94.8062 0.436942 94.0443 0.233669 92.3783 0.233669C89.9659 0.233669 90.2072 -0.0837613 87.1133 7.16893C85.5564 10.8183 83.9687 14.4928 83.5849 15.3341L82.887 16.864L79.4596 8.77982C76.692 2.25242 75.9145 0.650762 75.4218 0.461199C74.7632 0.208097 73.745 0.208097 72.0774 0.461726ZM8.69542 2.89229C8.55648 3.23873 8.03683 4.47128 7.54117 5.63133C7.04525 6.79138 5.60231 10.1727 4.33416 13.1453C3.06601 16.1179 1.56507 19.6031 0.999014 20.8902C-0.11358 23.4199 -0.265177 24.3356 0.386824 24.5858C0.616198 24.6738 1.68107 24.7458 2.75359 24.7458C4.48866 24.7458 4.74466 24.6804 5.07817 24.1526C5.28461 23.8262 6.59995 20.8306 8.00124 17.4955C9.40253 14.1603 10.7788 10.9241 11.0596 10.304C11.3403 9.68387 11.5702 9.02395 11.5702 8.83782C11.5702 8.50404 9.26965 2.58383 9.05768 2.37159C8.99756 2.31174 8.83463 2.54612 8.69542 2.89229ZM63.2268 6.62344C63.038 7.09273 61.2945 11.2112 59.3522 15.7754L55.8209 24.074V24.5193C56.223 24.8449 57.4278 25.0084 58.4629 25.0058C60.9854 25.0058 61.015 24.8202 61.4068 23.9984C61.8445 23.0803 64.0686 17.8994 65.3802 14.743L66.4143 12.2542L65.2041 9.14286C64.5384 7.43178 63.8985 5.97276 63.782 5.90078C63.6655 5.82881 63.4155 6.15388 63.2268 6.62344Z" fill="url(#paint0_linear_693_377)"/>
<path d="M15.1073 29.8352C14.7986 29.9508 14.5757 30.3363 14.2155 31.4217C14.0098 31.9851 13.7011 32.8718 13.5296 33.3937C13.118 34.5443 13.118 34.4465 13.5125 34.4465C13.7868 34.4465 13.8383 34.4109 13.9412 34.1143C14.0098 33.9305 14.0955 33.6428 14.1641 33.4738L14.267 33.1713H15.5017H16.7536L16.8393 33.2959C16.9079 33.367 16.9936 33.5954 17.0451 33.8089C17.1994 34.402 17.2509 34.4465 17.7482 34.4465C17.9883 34.4465 18.1597 34.4287 18.1597 34.405C18.1597 34.2241 16.5649 30.1021 16.462 29.9983C16.3763 29.9241 16.2562 29.8411 16.1876 29.8114C15.999 29.7343 15.3302 29.7492 15.1073 29.8352ZM15.8447 30.538C15.9133 30.624 16.119 31.1637 16.5478 32.4359L16.6507 32.7858H15.5017H14.3527L14.4556 32.5842C14.5071 32.4744 14.6786 32.0059 14.8158 31.5403C14.9701 31.0747 15.1244 30.6388 15.1759 30.5676C15.2788 30.4164 15.7075 30.3986 15.8447 30.538Z" fill="white"/>
<path d="M24.9677 29.85C24.2818 29.9894 23.9731 30.2948 23.8702 30.9324C23.7673 31.5522 23.9903 32.0237 24.4704 32.1927C24.7448 32.2936 24.8134 32.2965 25.8766 32.3113C26.9398 32.3262 27.0084 32.3291 27.2828 32.43C27.54 32.516 27.5915 32.6168 27.5915 33.0438C27.5915 33.8267 27.2485 34.0017 25.7223 34.0017C24.8477 34.0017 24.3675 33.9453 23.9903 33.7941C23.8531 33.7348 23.8188 33.7822 23.8702 34.0017C23.9045 34.1588 24.0246 34.316 24.1446 34.3516C24.5733 34.4939 26.2539 34.5562 27.0427 34.4584C28.0888 34.3308 28.5004 33.9424 28.5175 33.0379C28.5175 32.3084 28.3289 32.0118 27.7287 31.8814C27.4543 31.822 27.2314 31.8072 26.3396 31.8013C24.8134 31.7894 24.762 31.7627 24.7791 31.0807C24.7791 30.4787 24.9506 30.3363 25.7394 30.2711C26.2539 30.2296 27.1456 30.2444 27.6258 30.3067C27.7973 30.3275 28.0373 30.3838 28.1917 30.4312C28.4318 30.5143 28.4489 30.5113 28.4489 30.2919C28.4489 29.9034 27.8659 29.761 26.2882 29.761C25.4993 29.761 25.345 29.7729 24.9677 29.85Z" fill="white"/>
<path d="M31.2442 29.7966C30.764 29.8975 30.6783 30.0932 29.6494 33.0972C29.4607 33.6517 29.2721 34.1826 29.2206 34.2745C29.1349 34.4317 29.1521 34.4465 29.4436 34.4465C29.838 34.4465 29.9237 34.3546 30.0781 33.7348C30.2324 33.1298 30.1295 33.1713 31.6043 33.1713H32.8562L32.9762 33.5331C33.2677 34.4495 33.2506 34.4465 33.6964 34.4465C34.2281 34.4465 34.2281 34.491 33.6793 32.9667C32.5475 29.8411 32.5303 29.7848 31.7758 29.767C31.5872 29.761 31.3471 29.7759 31.2442 29.7966ZM31.7929 30.4698C31.8444 30.4846 32.033 30.9354 32.2217 31.4721C32.4103 32.0059 32.5818 32.5219 32.6161 32.6138L32.6675 32.7858H31.5529H30.4211L30.5411 32.4211C30.6097 32.2224 30.7812 31.7094 30.9184 31.2794C31.0556 30.8523 31.227 30.4876 31.2785 30.4728C31.4157 30.4342 31.6558 30.4342 31.7929 30.4698Z" fill="white"/>
<path d="M49.2503 29.7818C48.9588 29.7877 48.6158 29.8144 48.4786 29.8411C48.3071 29.8796 48.2385 30.3274 48.2042 32.1631L48.1699 34.4376L49.4218 34.4554C50.1077 34.4672 50.8966 34.4643 51.1709 34.4524C52.68 34.3812 53.143 33.8237 53.143 32.1067C53.1259 29.9686 52.6972 29.7077 49.2503 29.7818ZM50.828 30.2652C51.9769 30.3393 52.2856 30.7456 52.2856 32.1779C52.2856 33.7763 51.9941 34.0017 49.9362 34.0017H49.0274V32.169C49.0274 31.1637 49.0959 30.3245 49.1645 30.3067C49.2674 30.2741 49.6962 30.2474 50.1763 30.2385C50.2792 30.2385 50.5707 30.2474 50.828 30.2652Z" fill="white"/>
<path d="M72.641 29.8381C72.178 29.9182 71.8179 30.0902 71.4921 30.3986C71.2006 30.6596 71.0634 33.112 71.3034 33.5924C71.5264 34.0224 71.9722 34.3101 72.5896 34.4257C72.9497 34.491 73.1726 34.5058 73.8586 34.5058C74.5617 34.5058 74.7846 34.491 75.2476 34.4168C75.7621 34.3308 75.7792 34.319 75.7792 34.0699V33.8119L75.2476 33.9038C74.3388 34.0669 73.3098 34.061 72.7954 33.889C72.2466 33.7051 72.1437 33.4738 72.058 32.3291C71.9551 30.885 72.178 30.4698 73.1383 30.3037C73.7214 30.2059 74.4588 30.2266 75.2305 30.369L75.7792 30.4728V30.2029C75.7792 29.939 75.7621 29.9301 75.2476 29.847C74.5102 29.7284 73.2927 29.7255 72.641 29.8381Z" fill="white"/>
<path d="M19.2916 29.8381C19.2402 29.8648 19.1887 30.9116 19.1887 32.166V34.4465H21.2466H23.3044V34.2092V33.972H21.6753H20.0462V31.8813C20.0462 29.85 20.029 29.7907 19.7203 29.7907C19.5488 29.7907 19.3431 29.8114 19.2916 29.8381Z" fill="white"/>
<path d="M34.108 29.8352C34.108 29.8589 34.2624 30.3008 34.451 30.8197C34.6225 31.3387 34.9483 32.2224 35.137 32.7858C35.5142 33.889 35.7372 34.3042 36.0115 34.3931C36.1316 34.4317 36.3374 34.4465 36.646 34.4406L37.109 34.4317L37.4863 33.4086C37.6921 32.8451 38.0522 31.8458 38.2923 31.1845C38.8239 29.7314 38.8239 29.7907 38.4295 29.7907C38.138 29.7907 38.1037 29.8441 37.915 30.4046C37.3491 32.1483 36.7832 33.7526 36.7318 33.7644C36.5774 33.7941 36.3545 33.6814 36.2516 33.542C36.1659 33.4056 35.7372 32.1008 35.3084 30.7248C35.0341 29.8115 35.0169 29.7907 34.5196 29.7907C34.2795 29.7907 34.108 29.8085 34.108 29.8352Z" fill="white"/>
<path d="M42.6138 29.8559C42.5623 29.8945 42.5109 30.9413 42.5109 32.1838V34.4465H44.7402H46.9695V34.2092V33.972H45.1689H43.3683V33.112V32.252H44.9974H46.6265V32.0148V31.7775H44.9974H43.3683V31.0214V30.2652H45.1689H46.9695V30.0279V29.7907H44.8431C42.7852 29.7907 42.7166 29.7936 42.6138 29.8559Z" fill="white"/>
<path d="M54.412 29.8619C54.3605 29.9004 54.3434 30.799 54.3948 31.8576C54.4806 33.8653 54.5492 34.0817 55.2694 34.3219C55.7667 34.491 56.95 34.5325 57.6874 34.405C58.8192 34.2093 58.9907 33.8178 58.9392 31.6145L58.8878 29.8055L58.5105 29.7966L58.1161 29.7877V31.6056C58.1161 33.4234 58.0303 33.7348 57.4987 33.8742C57.0872 33.9868 56.6585 34.0076 56.1783 33.9424C55.338 33.8297 55.3209 33.7674 55.2523 31.7094C55.1837 29.8441 55.1665 29.7907 54.8578 29.7907C54.6521 29.7907 54.4806 29.8174 54.412 29.8619Z" fill="white"/>
<path d="M60.0024 30.0279V30.2652H60.9456H61.8888V32.3558V34.4465H62.3175H62.7462V32.3558V30.2652H63.7751H64.8041V30.0279V29.7907H62.4033H60.0024V30.0279Z" fill="white"/>
<path d="M65.953 29.8114C65.8845 29.8203 65.833 30.8701 65.833 32.1393V34.4465H68.0623H70.2917V34.2092V33.972H68.491H66.6904V33.112V32.252H68.3196H69.9487V32.0148V31.7775H68.3196H66.6904V31.0214V30.2652H68.491H70.2917V30.0279V29.7907H68.1824C67.0163 29.7907 66.0045 29.7996 65.953 29.8114Z" fill="white"/>
<path d="M77.0825 29.8382C77.0311 29.8648 76.9796 30.9117 76.9796 32.1661V34.4465H77.4083H77.837V33.3641V32.2817H79.3804H80.9238V33.3671V34.4495L81.3182 34.4406L81.6955 34.4317L81.7469 32.1097L81.7812 29.7907H81.3525H80.9238V30.799V31.8072H79.3804H77.837V30.799C77.837 29.8293 77.8199 29.7907 77.5112 29.7907C77.3397 29.7907 77.134 29.8115 77.0825 29.8382Z" fill="white"/>
<defs>
<linearGradient id="paint0_linear_693_377" x1="5.5366" y1="12.3915" x2="94.9132" y2="12.3915" gradientUnits="userSpaceOnUse">
<stop stop-color="#C29747"/>
<stop offset="0.270833" stop-color="#F3D978"/>
<stop offset="0.526042" stop-color="#E0B453"/>
<stop offset="0.75" stop-color="#F3D978"/>
<stop offset="1" stop-color="#C29747"/>
</linearGradient>
</defs>
</svg>
